<svg width="11" height="21" viewBox="0 0 11 21" fill="none" xmlns="http://www.w3.org/2000/svg">
<path d="M7.79409 0C6.48891 0 5.23719 0.54468 4.31429 1.51422C3.39139 2.48376 2.87291 3.79873 2.87291 5.16986V8.04822H0.239409C0.107468 8.04822 0 8.16 0 8.29973V12.1003C0 12.2389 0.106404 12.3518 0.239409 12.3518H2.87291V20.1485C2.87291 20.2871 2.97931 20.4 3.11232 20.4H6.73005C6.86199 20.4 6.96946 20.2882 6.96946 20.1485V12.3518H9.62636C9.73596 12.3518 9.83172 12.2735 9.85832 12.1618L10.7628 8.36121C10.7717 8.32412 10.7724 8.28539 10.7649 8.24796C10.7574 8.21054 10.7419 8.1754 10.7195 8.14522C10.6972 8.11504 10.6685 8.09062 10.6358 8.07381C10.6031 8.057 10.5672 8.04825 10.5308 8.04822H6.96946V5.16986C6.96946 5.0561 6.99079 4.94345 7.03223 4.83834C7.07367 4.73324 7.13441 4.63774 7.21099 4.5573C7.28756 4.47685 7.37847 4.41304 7.47852 4.3695C7.57856 4.32597 7.6858 4.30356 7.79409 4.30356H10.5606C10.6925 4.30356 10.8 4.19178 10.8 4.05205V0.251507C10.8 0.112899 10.6936 0 10.5606 0H7.79409Z" fill="#12372A"/>
</svg>
