<svg width="21" height="21" viewBox="0 0 21 21" fill="none" xmlns="http://www.w3.org/2000/svg">
<path d="M5.916 0H14.484C17.748 0 20.4 2.652 20.4 5.916V14.484C20.4 16.053 19.7767 17.5578 18.6672 18.6672C17.5578 19.7767 16.053 20.4 14.484 20.4H5.916C2.652 20.4 0 17.748 0 14.484V5.916C0 4.34698 0.623291 2.84222 1.73276 1.73276C2.84222 0.623291 4.34698 0 5.916 0ZM5.712 2.04C4.73812 2.04 3.80414 2.42687 3.1155 3.1155C2.42687 3.80414 2.04 4.73812 2.04 5.712V14.688C2.04 16.7178 3.6822 18.36 5.712 18.36H14.688C15.6619 18.36 16.5959 17.9731 17.2845 17.2845C17.9731 16.5959 18.36 15.6619 18.36 14.688V5.712C18.36 3.6822 16.7178 2.04 14.688 2.04H5.712ZM15.555 3.57C15.8932 3.57 16.2175 3.70433 16.4566 3.94344C16.6957 4.18255 16.83 4.50685 16.83 4.845C16.83 5.18315 16.6957 5.50745 16.4566 5.74656C16.2175 5.98567 15.8932 6.12 15.555 6.12C15.2168 6.12 14.8925 5.98567 14.6534 5.74656C14.4143 5.50745 14.28 5.18315 14.28 4.845C14.28 4.50685 14.4143 4.18255 14.6534 3.94344C14.8925 3.70433 15.2168 3.57 15.555 3.57ZM10.2 5.1C11.5526 5.1 12.8498 5.63732 13.8062 6.59376C14.7627 7.55019 15.3 8.8474 15.3 10.2C15.3 11.5526 14.7627 12.8498 13.8062 13.8062C12.8498 14.7627 11.5526 15.3 10.2 15.3C8.8474 15.3 7.55019 14.7627 6.59376 13.8062C5.63732 12.8498 5.1 11.5526 5.1 10.2C5.1 8.8474 5.63732 7.55019 6.59376 6.59376C7.55019 5.63732 8.8474 5.1 10.2 5.1ZM10.2 7.14C9.38844 7.14 8.61011 7.46239 8.03625 8.03625C7.46239 8.61011 7.14 9.38844 7.14 10.2C7.14 11.0116 7.46239 11.7899 8.03625 12.3637C8.61011 12.9376 9.38844 13.26 10.2 13.26C11.0116 13.26 11.7899 12.9376 12.3637 12.3637C12.9376 11.7899 13.26 11.0116 13.26 10.2C13.26 9.38844 12.9376 8.61011 12.3637 8.03625C11.7899 7.46239 11.0116 7.14 10.2 7.14Z" fill="#12372A"/>
</svg>
