<svg width="21" height="15" viewBox="0 0 21 15" fill="none" xmlns="http://www.w3.org/2000/svg">
<path d="M8.16 10.2857L13.4538 7.2L8.16 4.11429V10.2857ZM19.9512 2.232C20.0838 2.71543 20.1756 3.36343 20.2368 4.18629C20.3082 5.00914 20.3388 5.71886 20.3388 6.336L20.4 7.2C20.4 9.45257 20.2368 11.1086 19.9512 12.168C19.6962 13.0937 19.1046 13.6903 18.1866 13.9474C17.7072 14.0811 16.83 14.1737 15.4836 14.2354C14.1576 14.3074 12.9438 14.3383 11.8218 14.3383L10.2 14.4C5.9262 14.4 3.264 14.2354 2.2134 13.9474C1.2954 13.6903 0.7038 13.0937 0.4488 12.168C0.3162 11.6846 0.2244 11.0366 0.1632 10.2137C0.0918001 9.39086 0.0611999 8.68114 0.0611999 8.064L0 7.2C0 4.94743 0.1632 3.29143 0.4488 2.232C0.7038 1.30629 1.2954 0.709714 2.2134 0.452571C2.6928 0.318857 3.57 0.226286 4.9164 0.164571C6.2424 0.0925713 7.4562 0.0617142 8.5782 0.0617142L10.2 0C14.4738 0 17.136 0.164571 18.1866 0.452571C19.1046 0.709714 19.6962 1.30629 19.9512 2.232Z" fill="#12372A"/>
</svg>
